<?xml version="1.0" encoding="utf-8"?>
<!-- Generator: Adobe Illustrator 16.0.0, SVG Export Plug-In . SVG Version: 6.00 Build 0)  -->
<!DOCTYPE svg PUBLIC "-//W3C//DTD SVG 1.1//EN" "http://www.w3.org/Graphics/SVG/1.1/DTD/svg11.dtd">
<svg version="1.1" id="Layer_1" xmlns="http://www.w3.org/2000/svg" xmlns:xlink="http://www.w3.org/1999/xlink" x="0px" y="0px"
	 width="256px" height="384px" viewBox="0 0 256 384" enable-background="new 0 0 256 384" xml:space="preserve">
<g>
	<path fill="#66BE6F" d="M219.511,84.878h13.319V15.806H22.99v69.072h8.385c4.122,13.721,32.624,104.304,73.802,128.527
		l-74.318,4.372l20.984,42.843h153.882l13.989-45.466l-70.821-0.874C148.894,214.28,209.292,173.711,219.511,84.878z"/>
	<g>
		<path fill="#579F5B" d="M237.093,10.562H18.907c-4.203,0-7.607,3.41-7.607,7.613v65.52c0,4.209,3.405,7.613,7.607,7.613h8.05
			c4.798,20.548,22.664,86.354,60.245,116.397H33.078c-2.489,0-4.827,1.219-6.249,3.265c-1.422,2.041-1.754,4.652-0.886,6.995
			l16.549,44.646c1.102,2.985,3.952,4.967,7.134,4.967h64.844v54.823c0,4.203,3.404,7.613,7.613,7.613h11.838
			c4.203,0,7.607-3.41,7.607-7.613v-54.823h64.844c3.183,0,6.034-1.981,7.136-4.967l16.549-44.646
			c0.868-2.343,0.536-4.954-0.886-6.995c-1.423-2.046-3.755-3.265-6.249-3.265h-54.124c37.58-30.043,55.447-95.849,60.244-116.397
			h8.05c4.197,0,7.607-3.404,7.607-7.613v-65.52C244.7,13.972,241.29,10.562,237.093,10.562z M42.661,91.307h27.508
			c1.452,34.2,12.293,78.088,27.718,105.543C65.687,172.52,48.327,113.901,42.661,91.307z M54.926,252.356l-10.912-29.432h25.631
			l7.287,29.432H54.926z M114.471,252.356H92.611l-7.287-29.432h29.146V252.356z M114.471,195.639
			c-13.163-20.362-27.461-63.353-29.094-104.332h29.094V195.639z M186.356,222.925h25.63l-10.911,29.432h-22L186.356,222.925z
			 M170.676,222.925l-7.28,29.432h-21.866v-29.432H170.676z M158.113,196.851c15.431-27.456,26.267-71.344,27.725-105.543h27.501
			C207.674,113.901,190.314,172.52,158.113,196.851z M141.529,195.639V91.307h29.094
			C168.997,132.286,154.691,175.276,141.529,195.639z M229.48,76.087H26.52V25.781h202.96V76.087z"/>
	</g>
	<polygon fill="#579F5B" points="141.495,328.15 128,339.631 114.462,328.15 114.462,299.96 141.495,299.96 	"/>
	<ellipse opacity="0.1" cx="128" cy="369.942" rx="51.297" ry="3.497"/>
</g>
</svg>
