<?xml version="1.0" encoding="utf-8"?>
<!-- Generator: Adobe Illustrator 16.0.0, SVG Export Plug-In . SVG Version: 6.00 Build 0)  -->
<!DOCTYPE svg PUBLIC "-//W3C//DTD SVG 1.1//EN" "http://www.w3.org/Graphics/SVG/1.1/DTD/svg11.dtd">
<svg version="1.1" id="Layer_1" xmlns="http://www.w3.org/2000/svg" xmlns:xlink="http://www.w3.org/1999/xlink" x="0px" y="0px"
	 width="24px" height="24px" viewBox="0 0 24 24" enable-background="new 0 0 24 24" xml:space="preserve">
<circle fill="#FF9797" cx="12.123" cy="12.001" r="11.646"/>
<g>
	<g>
		<path fill="#CB5B5B" d="M16.631,9.495H7.614c-0.276,0-0.5-0.223-0.5-0.5s0.224-0.501,0.5-0.501h9.017
			c0.277,0,0.501,0.225,0.501,0.501S16.908,9.495,16.631,9.495z"/>
	</g>
	<g>
		<path fill="#CB5B5B" d="M14.627,17.511H9.619c-0.829,0-1.503-0.675-1.503-1.503V8.995c0-0.277,0.225-0.501,0.5-0.501
			c0.277,0,0.5,0.225,0.5,0.501v7.013c0,0.277,0.225,0.5,0.501,0.5h5.009c0.276,0,0.501-0.225,0.501-0.5V8.995
			c0-0.277,0.224-0.501,0.5-0.501c0.275,0,0.501,0.225,0.501,0.501v7.013C16.131,16.836,15.457,17.511,14.627,17.511z M14.127,9.495
			c-0.277,0-0.5-0.223-0.5-0.5V7.992c0-0.276-0.227-0.5-0.501-0.5h-2.003c-0.276,0-0.5,0.225-0.5,0.5v1.003
			c0,0.276-0.225,0.5-0.501,0.5c-0.276,0-0.5-0.224-0.5-0.5V7.992c0-0.828,0.674-1.503,1.502-1.503h2.002
			c0.828,0,1.502,0.675,1.502,1.503v1.003C14.627,9.271,14.404,9.495,14.127,9.495z"/>
	</g>
	<g>
		<path fill="#CB5B5B" d="M11.122,15.006c-0.277,0-0.501-0.225-0.501-0.5v-3.007c0-0.276,0.224-0.5,0.501-0.5
			c0.275,0,0.5,0.224,0.5,0.5v3.007C11.623,14.781,11.397,15.006,11.122,15.006z"/>
	</g>
	<g>
		<path fill="#CB5B5B" d="M13.125,15.006c-0.276,0-0.5-0.225-0.5-0.5v-3.007c0-0.276,0.225-0.5,0.5-0.5s0.5,0.224,0.5,0.5v3.007
			C13.625,14.781,13.401,15.006,13.125,15.006z"/>
	</g>
</g>
</svg>
