<?xml version="1.0" encoding="utf-8"?>
<!-- Generator: Adobe Illustrator 16.0.0, SVG Export Plug-In . SVG Version: 6.00 Build 0)  -->
<!DOCTYPE svg PUBLIC "-//W3C//DTD SVG 1.1//EN" "http://www.w3.org/Graphics/SVG/1.1/DTD/svg11.dtd">
<svg version="1.1" id="Layer_1" xmlns="http://www.w3.org/2000/svg" xmlns:xlink="http://www.w3.org/1999/xlink" x="0px" y="0px"
	 width="1792px" height="1792px" viewBox="0 0 1792 1792" enable-background="new 0 0 1792 1792" xml:space="preserve">
<path fill="#A2A2A2" d="M704,736v576c0,9.333-3,17-9,23s-13.667,9-23,9h-64c-9.333,0-17-3-23-9s-9-13.667-9-23V736
	c0-9.333,3-17,9-23s13.667-9,23-9h64c9.333,0,17,3,23,9S704,726.667,704,736z M960,736v576c0,9.333-3,17-9,23s-13.667,9-23,9h-64
	c-9.333,0-17-3-23-9s-9-13.667-9-23V736c0-9.333,3-17,9-23s13.667-9,23-9h64c9.333,0,17,3,23,9S960,726.667,960,736z M1216,736v576
	c0,9.333-3,17-9,23s-13.667,9-23,9h-64c-9.333,0-17-3-23-9s-9-13.667-9-23V736c0-9.333,3-17,9-23s13.667-9,23-9h64
	c9.333,0,17,3,23,9S1216,726.667,1216,736z M1344,1460V512H448v948c0,14.667,2.333,28.167,7,40.5s9.5,21.333,14.5,27
	s8.5,8.5,10.5,8.5h832c2,0,5.5-2.833,10.5-8.5s9.833-14.667,14.5-27S1344,1474.667,1344,1460z M672,384h448l-48-117
	c-4.667-6-10.333-9.667-17-11H738c-6.667,1.333-12.333,5-17,11L672,384z M1600,416v64c0,9.333-3,17-9,23s-13.667,9-23,9h-96v948
	c0,55.333-15.667,103.167-47,143.5s-69,60.5-113,60.5H480c-44,0-81.667-19.5-113-58.5s-47-86.167-47-141.5V512h-96
	c-9.333,0-17-3-23-9s-9-13.667-9-23v-64c0-9.333,3-17,9-23s13.667-9,23-9h309l70-167c10-24.667,28-45.667,54-63s52.333-26,79-26h320
	c26.667,0,53,8.667,79,26s44,38.333,54,63l70,167h309c9.333,0,17,3,23,9S1600,406.667,1600,416z"/>
</svg>
